<svg id="visual" viewBox="0 0 960 300" width="960" height="300" xmlns="http://www.w3.org/2000/svg" xmlns:xlink="http://www.w3.org/1999/xlink" version="1.1"><rect x="0" y="0" width="960" height="300" fill="#cdf564"></rect><path d="M0 84L22.8 80.5C45.7 77 91.3 70 137 72.2C182.7 74.3 228.3 85.7 274 100C319.7 114.3 365.3 131.7 411.2 128.2C457 124.7 503 100.3 548.8 98.8C594.7 97.3 640.3 118.7 686 130.2C731.7 141.7 777.3 143.3 823 136.2C868.7 129 914.3 113 937.2 105L960 97L960 301L937.2 301C914.3 301 868.7 301 823 301C777.3 301 731.7 301 686 301C640.3 301 594.7 301 548.8 301C503 301 457 301 411.2 301C365.3 301 319.7 301 274 301C228.3 301 182.7 301 137 301C91.3 301 45.7 301 22.8 301L0 301Z" fill="#f037a5"></path><path d="M0 160L22.8 149.3C45.7 138.7 91.3 117.3 137 120.2C182.7 123 228.3 150 274 158.5C319.7 167 365.3 157 411.2 154.5C457 152 503 157 548.8 152.8C594.7 148.7 640.3 135.3 686 129.3C731.7 123.3 777.3 124.7 823 124.2C868.7 123.7 914.3 121.3 937.2 120.2L960 119L960 301L937.2 301C914.3 301 868.7 301 823 301C777.3 301 731.7 301 686 301C640.3 301 594.7 301 548.8 301C503 301 457 301 411.2 301C365.3 301 319.7 301 274 301C228.3 301 182.7 301 137 301C91.3 301 45.7 301 22.8 301L0 301Z" fill="#9b72e1"></path><path d="M0 150L22.8 156.5C45.7 163 91.3 176 137 180.8C182.7 185.7 228.3 182.3 274 176.5C319.7 170.7 365.3 162.3 411.2 165.3C457 168.3 503 182.7 548.8 182.7C594.7 182.7 640.3 168.3 686 166.2C731.7 164 777.3 174 823 182C868.7 190 914.3 196 937.2 199L960 202L960 301L937.2 301C914.3 301 868.7 301 823 301C777.3 301 731.7 301 686 301C640.3 301 594.7 301 548.8 301C503 301 457 301 411.2 301C365.3 301 319.7 301 274 301C228.3 301 182.7 301 137 301C91.3 301 45.7 301 22.8 301L0 301Z" fill="#008fe0"></path><path d="M0 200L22.8 202.8C45.7 205.7 91.3 211.3 137 213.8C182.7 216.3 228.3 215.7 274 212.2C319.7 208.7 365.3 202.3 411.2 200.2C457 198 503 200 548.8 206C594.7 212 640.3 222 686 219.7C731.7 217.3 777.3 202.7 823 202C868.7 201.3 914.3 214.7 937.2 221.3L960 228L960 301L937.2 301C914.3 301 868.7 301 823 301C777.3 301 731.7 301 686 301C640.3 301 594.7 301 548.8 301C503 301 457 301 411.2 301C365.3 301 319.7 301 274 301C228.3 301 182.7 301 137 301C91.3 301 45.7 301 22.8 301L0 301Z" fill="#0096b1"></path><path d="M0 264L22.8 265.7C45.7 267.3 91.3 270.7 137 265.7C182.7 260.7 228.3 247.3 274 245.5C319.7 243.7 365.3 253.3 411.2 259.2C457 265 503 267 548.8 264.8C594.7 262.7 640.3 256.3 686 256.5C731.7 256.7 777.3 263.3 823 263.7C868.7 264 914.3 258 937.2 255L960 252L960 301L937.2 301C914.3 301 868.7 301 823 301C777.3 301 731.7 301 686 301C640.3 301 594.7 301 548.8 301C503 301 457 301 411.2 301C365.3 301 319.7 301 274 301C228.3 301 182.7 301 137 301C91.3 301 45.7 301 22.8 301L0 301Z" fill="#4b917d"></path></svg>